<svg width="17" height="17" viewBox="0 0 17 17" fill="none" xmlns="http://www.w3.org/2000/svg">
<path d="M16.1996 12.0057C14.0267 10.6314 11.5195 9.88855 8.93809 9.88855H8.8452C6.26376 9.88855 3.7566 10.6128 1.58373 12.0057C1.17528 12.2657 0.915283 12.73 0.915283 13.2313V15.2556C0.915283 16.0541 1.56535 16.7227 2.36386 16.7227H15.4382C16.2367 16.7227 16.8868 16.0726 16.8868 15.2556V13.2313C16.8868 12.73 16.6268 12.2657 16.1997 12.0057H16.1996ZM15.7725 15.2558C15.7725 15.4415 15.6239 15.6087 15.4382 15.6087L2.36386 15.6085C2.17809 15.6085 2.02964 15.4599 2.02964 15.2556L2.02951 13.2314C2.02951 13.1199 2.08521 12.9899 2.19662 12.9342C4.18384 11.6714 6.48665 11.0028 8.84524 11.0028H8.93812C11.2967 11.0028 13.5996 11.6714 15.6053 12.9342C15.6982 12.9899 15.7724 13.1013 15.7724 13.2314L15.7725 15.2558Z" fill="white"/>
<path d="M9.23516 9.10852C10.7951 9.10852 12.0581 7.84572 12.0581 6.30425V3.74134C12.0581 2.1999 10.7951 0.937073 9.23516 0.937073H8.54804C7.00659 0.937073 5.74365 2.19987 5.74365 3.74134V6.28561C5.74365 7.84572 7.00659 9.10852 8.56658 9.10852H9.23516ZM6.85799 6.30425V3.74134C6.85799 2.81277 7.61946 2.0513 8.56658 2.0513H9.2537C10.1823 2.0513 10.9623 2.81277 10.9623 3.74134V6.28561C10.9623 7.21419 10.2008 7.97565 9.2537 7.97565H8.56658C7.61946 7.99431 6.85799 7.23286 6.85799 6.30428V6.30425Z" fill="white"/>
</svg>
